<?xml version="1.0" encoding="utf-8"?>
<!-- Generator: Adobe Illustrator 24.0.0, SVG Export Plug-In . SVG Version: 6.00 Build 0)  -->
<svg version="1.1" id="Layer_1" xmlns="http://www.w3.org/2000/svg" xmlns:xlink="http://www.w3.org/1999/xlink" x="0px" y="0px"
	 viewBox="0 0 41 32" style="enable-background:new 0 0 41 32;" xml:space="preserve">
<style type="text/css">
	.st0{fill:#FFFFFF;}
</style>
<path class="st0" d="M37.7,13.8H8.6l8.9-9.4c0.4-0.4,0.6-1,0.6-1.6c-0.1-0.6-0.4-1.1-0.9-1.5C16.7,1,16,0.8,15.4,0.8
	c-0.7,0.1-1.2,0.3-1.7,0.8l-12.3,13c-0.1,0.1-0.2,0.2-0.2,0.3c0,0.1,0,0.2-0.2,0.3c-0.1,0.2-0.2,0.5-0.2,0.8c0,0.3,0.1,0.5,0.2,0.8
	c0,0.1,0,0.2,0.2,0.3c0.1,0.1,0.1,0.2,0.2,0.3l12.3,13c0.2,0.2,0.5,0.4,0.8,0.6c0.3,0.1,0.7,0.2,1,0.2c0.6,0,1.1-0.2,1.6-0.5
	c0.2-0.2,0.5-0.4,0.6-0.7c0.2-0.3,0.2-0.5,0.3-0.8c0-0.3,0-0.6-0.1-0.8c-0.1-0.3-0.3-0.5-0.5-0.7l-8.9-9.4h29.2
	c0.7,0,1.3-0.2,1.7-0.6c0.5-0.4,0.7-1,0.7-1.5c0-0.6-0.3-1.1-0.7-1.5C39,14.1,38.4,13.8,37.7,13.8z"/>
</svg>
