<?xml version="1.0" encoding="utf-8"?>
<!-- Generator: Adobe Illustrator 24.0.0, SVG Export Plug-In . SVG Version: 6.00 Build 0)  -->
<svg version="1.1" id="Layer_1" xmlns="http://www.w3.org/2000/svg" xmlns:xlink="http://www.w3.org/1999/xlink" x="0px" y="0px"
	 viewBox="0 0 51 41" style="enable-background:new 0 0 51 41;" xml:space="preserve">
<style type="text/css">
	.st0{fill-rule:evenodd;clip-rule:evenodd;fill:#FFFFFF;}
</style>
<path class="st0" d="M14.6,37.1c0-0.5,0.2-1,0.5-1.4c0.3-0.4,0.8-0.6,1.3-0.6h32.8c0.5,0,0.9,0.2,1.3,0.6c0.3,0.4,0.5,0.9,0.5,1.4
	s-0.2,1-0.5,1.4c-0.3,0.4-0.8,0.6-1.3,0.6H16.4c-0.5,0-0.9-0.2-1.3-0.6C14.8,38.1,14.6,37.6,14.6,37.1z M14.6,21.5
	c0-0.5,0.2-1,0.5-1.4c0.3-0.4,0.8-0.6,1.3-0.6h32.8c0.5,0,0.9,0.2,1.3,0.6c0.3,0.4,0.5,0.9,0.5,1.4s-0.2,1-0.5,1.4
	c-0.3,0.4-0.8,0.6-1.3,0.6H16.4c-0.5,0-0.9-0.2-1.3-0.6C14.8,22.5,14.6,22,14.6,21.5z M14.6,5.9c0-0.5,0.2-1,0.5-1.4
	c0.3-0.4,0.8-0.6,1.3-0.6h32.8c0.5,0,0.9,0.2,1.3,0.6C50.8,4.8,51,5.3,51,5.9c0,0.5-0.2,1-0.5,1.4c-0.3,0.4-0.8,0.6-1.3,0.6H16.4
	c-0.5,0-0.9-0.2-1.3-0.6C14.8,6.9,14.6,6.4,14.6,5.9z M10.4,0.6c0.2,0.2,0.3,0.4,0.4,0.6c0.1,0.2,0.1,0.5,0.1,0.7s0,0.5-0.1,0.7
	c-0.1,0.2-0.2,0.5-0.4,0.6L4.9,9.2C4.8,9.4,4.6,9.5,4.3,9.6C4.1,9.7,3.9,9.8,3.6,9.8S3.2,9.7,2.9,9.6C2.7,9.5,2.5,9.4,2.4,9.2
	l-1.8-2C0.4,7.1,0.2,6.8,0.1,6.6C0,6.4,0,6.1,0,5.9c0-0.3,0-0.5,0.1-0.7c0.1-0.2,0.2-0.5,0.4-0.6c0.2-0.2,0.4-0.3,0.6-0.4
	C1.3,4,1.6,3.9,1.8,3.9c0.2,0,0.5,0.1,0.7,0.1c0.2,0.1,0.4,0.2,0.6,0.4l0.5,0.6l4.2-4.5C8,0.4,8.2,0.2,8.4,0.1C8.6,0.1,8.9,0,9.1,0
	c0.2,0,0.5,0.1,0.7,0.1C10,0.2,10.2,0.4,10.4,0.6z M10.4,16.2c0.2,0.2,0.3,0.4,0.4,0.6c0.1,0.2,0.1,0.5,0.1,0.7c0,0.3,0,0.5-0.1,0.7
	c-0.1,0.2-0.2,0.5-0.4,0.6l-5.5,5.9c-0.2,0.2-0.4,0.3-0.6,0.4c-0.2,0.1-0.5,0.1-0.7,0.1s-0.5-0.1-0.7-0.1c-0.2-0.1-0.4-0.2-0.6-0.4
	l-1.8-2C0.2,22.5,0,22,0,21.5c0-0.5,0.2-1,0.5-1.4c0.3-0.4,0.8-0.6,1.3-0.6s0.9,0.2,1.3,0.6l0.5,0.6l4.2-4.5C8,16,8.2,15.9,8.4,15.8
	c0.2-0.1,0.5-0.1,0.7-0.1c0.2,0,0.5,0.1,0.7,0.1C10,15.9,10.2,16,10.4,16.2z M10.4,31.8c0.2,0.2,0.3,0.4,0.4,0.6
	c0.1,0.2,0.1,0.5,0.1,0.7c0,0.3,0,0.5-0.1,0.7c-0.1,0.2-0.2,0.5-0.4,0.6l-5.5,5.9c-0.2,0.2-0.4,0.3-0.6,0.4C4.1,40.9,3.9,41,3.6,41
	s-0.5-0.1-0.7-0.1c-0.2-0.1-0.4-0.2-0.6-0.4l-1.8-2C0.2,38.1,0,37.6,0,37.1c0-0.5,0.2-1,0.5-1.4c0.3-0.4,0.8-0.6,1.3-0.6
	s0.9,0.2,1.3,0.6l0.5,0.6l4.2-4.5c0.2-0.2,0.4-0.3,0.6-0.4c0.2-0.1,0.5-0.1,0.7-0.1c0.2,0,0.5,0.1,0.7,0.1
	C10,31.5,10.2,31.6,10.4,31.8z"/>
</svg>
