<?xml version="1.0" encoding="utf-8"?>
<!-- Generator: Adobe Illustrator 24.0.0, SVG Export Plug-In . SVG Version: 6.00 Build 0)  -->
<svg version="1.1" id="Layer_1" xmlns="http://www.w3.org/2000/svg" xmlns:xlink="http://www.w3.org/1999/xlink" x="0px" y="0px"
	 viewBox="0 0 31.6 32" style="enable-background:new 0 0 31.6 32;" xml:space="preserve">
<style type="text/css">
	.st0{fill-rule:evenodd;clip-rule:evenodd;fill:#FFFFFF;}
</style>
<path class="st0" d="M28,14.5c-0.6,0-1.1-0.4-1.1-1c0-6.1-4.9-11.1-11.1-11.1C9.7,2.5,4.7,7.4,4.7,13.5c0,5.5,4.1,10.1,9.4,10.9
	v-5.5l7.3,6.4l-7.3,6.5v-5.2C7.7,25.8,2.6,20.2,2.6,13.5c0-7.3,6-13.3,13.2-13.3C23.1,0.3,29,6.2,29,13.5C29,14.1,28.5,14.5,28,14.5
	L28,14.5z"/>
</svg>
