<?xml version="1.0" encoding="utf-8"?>
<!-- Generator: Adobe Illustrator 24.0.0, SVG Export Plug-In . SVG Version: 6.00 Build 0)  -->
<svg version="1.1" id="Layer_1" xmlns="http://www.w3.org/2000/svg" xmlns:xlink="http://www.w3.org/1999/xlink" x="0px" y="0px"
	 viewBox="0 0 31.6 32" style="enable-background:new 0 0 31.6 32;" xml:space="preserve">
<style type="text/css">
	.st0{fill-rule:evenodd;clip-rule:evenodd;fill:#F6DCBF;}
</style>
<g>
	<path class="st0" d="M29.5,18.5L29.5,18.5h-3.8c-0.2,0-0.4,0.1-0.5,0.4c-0.6,1.4-0.9,2.1-1.1,2.3c-0.9,1.5-2.1,2.7-3.6,3.5
		c-1.5,0.8-3.1,1.2-4.8,1.2c-1.2,0-2.5-0.1-3.6-0.7c-1.1-0.4-2.2-1.1-3.1-2l2.6-2.6c0.3-0.2,0.4-0.5,0.4-0.9c0-0.3-0.1-0.6-0.4-0.9
		c-0.2-0.2-0.6-0.3-0.8-0.3H2.2c-0.3,0-0.6,0.1-0.9,0.3C1.1,19.1,1,19.4,1,19.7v8.7c0,0.3,0.1,0.6,0.3,0.9c0.3,0.2,0.6,0.3,0.9,0.3
		c0.4,0,0.7-0.1,0.9-0.3l2.4-2.5c1.4,1.2,2.9,2.3,4.7,3c1.8,0.6,3.6,1,5.5,1c3.6,0,6.6-1.1,9.2-3.2c2.7-2.2,4.4-4.9,5.2-8.3
		c0-0.1,0-0.1,0-0.2c0-0.2,0-0.3-0.2-0.5C29.8,18.6,29.6,18.5,29.5,18.5L29.5,18.5z"/>
	<path class="st0" d="M30.2,2.8c-0.2-0.3-0.5-0.5-0.9-0.5c-0.3,0-0.6,0.2-0.9,0.5L26,5.2C24.7,4,23,3,21.2,2.3
		c-1.8-0.8-3.6-1.1-5.4-1.1c-3.6,0-6.6,1.1-9.3,3.2c-2.6,2.2-4.4,4.9-5.2,8.3v0.2c0,0.2,0.1,0.2,0.2,0.4c0.1,0.1,0.3,0.2,0.5,0.2
		h3.8c0.3,0,0.5-0.2,0.6-0.4c0.5-1.3,0.9-2.1,1.1-2.3c0.9-1.5,2-2.7,3.6-3.5c1.5-0.8,3.1-1.3,4.8-1.3c2.6,0,4.8,0.9,6.7,2.7
		l-2.6,2.6c-0.3,0.3-0.5,0.6-0.5,0.9c0,0.4,0.2,0.7,0.5,0.9c0.2,0.3,0.4,0.4,0.8,0.4h8.6c0.4,0,0.7-0.1,0.9-0.4
		c0.2-0.2,0.4-0.5,0.4-0.9V3.6C30.6,3.3,30.4,3,30.2,2.8L30.2,2.8z"/>
</g>
</svg>
